<svg width="20" height="17" viewBox="0 0 20 17" fill="none" xmlns="http://www.w3.org/2000/svg">
<path d="M15.6711 6.13142L9.59897 12.2044L3.52702 6.13158C3.52696 6.13153 3.52691 6.13147 3.52685 6.13142C3.18951 5.79388 3 5.3362 3 4.85898C3 4.38199 3.18933 3.92451 3.52637 3.58702C3.52648 3.58692 3.52659 3.58681 3.5267 3.5867C3.5268 3.5866 3.52691 3.58649 3.52702 3.58638C3.8645 3.24934 4.32198 3.06001 4.79897 3.06001C5.27627 3.06001 5.73402 3.24958 6.07157 3.58702L6.07216 3.58761L7.47856 4.99281C8.64992 6.16317 10.548 6.16317 11.7194 4.99281L13.1258 3.58761C13.1384 3.57502 13.1509 3.56233 13.1632 3.54952C13.3293 3.3776 13.5279 3.24047 13.7475 3.14614C13.9671 3.0518 14.2033 3.00214 14.4423 3.00007C14.6813 2.99799 14.9183 3.04353 15.1396 3.13404C15.3608 3.22455 15.5617 3.3582 15.7307 3.52721C15.8998 3.69621 16.0334 3.89719 16.1239 4.1184C16.2144 4.33961 16.26 4.57664 16.2579 4.81564C16.2558 5.05464 16.2062 5.29084 16.1118 5.51045C16.0175 5.73005 15.8804 5.92867 15.7084 6.09472C15.6959 6.10684 15.6834 6.11908 15.6711 6.13142Z" stroke="#8E8E8E" stroke-width="6" stroke-linejoin="round"/>
</svg>
