<svg width="396" height="59" viewBox="0 0 396 59" fill="none" xmlns="http://www.w3.org/2000/svg">
<path d="M74.2261 36.2656H67.6738V53H59.0298V8.21094H74.0415C76.5229 8.21094 78.7686 8.5083 80.7783 9.10303C82.7881 9.67725 84.5107 10.5283 85.9463 11.6562C87.3613 12.7842 88.4482 14.189 89.207 15.8706C89.9863 17.5522 90.376 19.5005 90.376 21.7153C90.376 23.3149 90.1812 24.7607 89.7915 26.0527C89.4224 27.3242 88.8892 28.4624 88.1919 29.4673C87.4741 30.4927 86.6128 31.3848 85.6079 32.1436C84.6235 32.9023 83.5161 33.5586 82.2856 34.1123L91.9141 52.6001V53H82.6548L74.2261 36.2656ZM67.6738 29.252H74.0723C75.4053 29.252 76.5742 29.0674 77.5791 28.6982C78.6045 28.3086 79.4351 27.7549 80.0708 27.0371C80.604 26.4629 81.0039 25.7759 81.2705 24.9761C81.5576 24.1763 81.7012 23.2842 81.7012 22.2998C81.7012 21.1104 81.5166 20.0645 81.1475 19.1621C80.7988 18.2393 80.2656 17.4805 79.5479 16.8857C78.9121 16.3525 78.1328 15.9424 77.21 15.6553C76.2871 15.3682 75.231 15.2246 74.0415 15.2246H67.6738V29.252ZM96.0054 36.0503C96.0054 33.6304 96.354 31.395 97.0513 29.3442C97.7485 27.2729 98.7739 25.4785 100.127 23.9609C101.46 22.4434 103.091 21.2539 105.019 20.3926C106.967 19.5312 109.192 19.1006 111.694 19.1006C114.196 19.1006 116.421 19.5312 118.369 20.3926C120.317 21.2539 121.968 22.4434 123.322 23.9609C124.655 25.4785 125.67 27.2729 126.367 29.3442C127.064 31.395 127.413 33.6304 127.413 36.0503V36.6963C127.413 39.1367 127.064 41.3926 126.367 43.4639C125.67 45.5146 124.655 47.2988 123.322 48.8164C121.989 50.334 120.348 51.5234 118.4 52.3848C116.452 53.2256 114.237 53.646 111.755 53.646C109.253 53.646 107.018 53.2256 105.049 52.3848C103.101 51.5234 101.46 50.334 100.127 48.8164C98.7739 47.2988 97.7485 45.5146 97.0513 43.4639C96.354 41.3926 96.0054 39.1367 96.0054 36.6963V36.0503ZM104.557 36.6963C104.557 38.0908 104.69 39.4033 104.957 40.6338C105.224 41.8438 105.644 42.8999 106.218 43.8022C106.792 44.7251 107.531 45.4531 108.433 45.9863C109.356 46.5195 110.463 46.7861 111.755 46.7861C113.006 46.7861 114.083 46.5195 114.985 45.9863C115.888 45.4531 116.626 44.7251 117.2 43.8022C117.754 42.8999 118.164 41.8438 118.431 40.6338C118.697 39.4033 118.831 38.0908 118.831 36.6963V36.0503C118.831 34.6968 118.697 33.415 118.431 32.2051C118.164 30.9951 117.754 29.9287 117.2 29.0059C116.626 28.083 115.888 27.355 114.985 26.8218C114.083 26.2886 112.986 26.022 111.694 26.022C110.422 26.022 109.335 26.2886 108.433 26.8218C107.531 27.355 106.792 28.083 106.218 29.0059C105.644 29.9287 105.224 30.9951 104.957 32.2051C104.69 33.415 104.557 34.6968 104.557 36.0503V36.6963ZM149.746 46.7861C150.587 46.7861 151.387 46.6631 152.146 46.417C152.904 46.1709 153.571 45.8223 154.145 45.3711C154.719 44.9199 155.16 44.3765 155.468 43.7407C155.796 43.105 155.939 42.3975 155.898 41.6182H163.958C163.999 43.3408 163.64 44.9404 162.881 46.417C162.143 47.8936 161.128 49.165 159.836 50.2314C158.544 51.2979 157.037 52.1387 155.314 52.7539C153.612 53.3486 151.807 53.646 149.9 53.646C147.316 53.646 145.05 53.2153 143.102 52.354C141.153 51.4722 139.533 50.2725 138.241 48.7549C136.929 47.2373 135.934 45.4634 135.257 43.4331C134.601 41.3823 134.273 39.188 134.273 36.8501V35.9272C134.273 33.5894 134.601 31.4053 135.257 29.375C135.914 27.3242 136.898 25.54 138.21 24.0225C139.523 22.5049 141.143 21.3052 143.071 20.4233C145.019 19.5415 147.275 19.1006 149.838 19.1006C151.889 19.1006 153.786 19.4082 155.529 20.0234C157.272 20.6387 158.78 21.5 160.051 22.6074C161.302 23.7354 162.276 25.0991 162.974 26.6987C163.671 28.2778 163.999 30.0518 163.958 32.0205H155.898C155.939 31.2002 155.816 30.4209 155.529 29.6826C155.242 28.9443 154.822 28.3086 154.268 27.7754C153.714 27.2422 153.048 26.8218 152.269 26.5142C151.489 26.186 150.638 26.022 149.715 26.022C148.362 26.022 147.244 26.2988 146.362 26.8525C145.48 27.4062 144.783 28.1445 144.271 29.0674C143.737 29.9902 143.358 31.0464 143.132 32.2358C142.927 33.4253 142.825 34.6558 142.825 35.9272V36.8501C142.825 38.1421 142.927 39.3931 143.132 40.603C143.337 41.7925 143.707 42.8384 144.24 43.7407C144.752 44.6636 145.45 45.4019 146.332 45.9556C147.234 46.5093 148.372 46.7861 149.746 46.7861ZM185.368 39.2495L181.492 42.8486V53H172.94V5.75H181.492V32.7588L184.076 29.8057L193.274 19.7158H203.548L190.998 33.5894L205.302 53H194.812L185.368 39.2495ZM220.836 53L207.301 8.21094H216.837L224.436 37.4653L225.205 40.48L226.035 37.4346L233.664 8.21094H243.2L229.634 53H220.836ZM250.798 19.7158H268.917V46.0479H277.93V53H250.798V46.0479H260.273V26.6987H250.798V19.7158ZM259.658 11.1948C259.658 10.5386 259.771 9.93359 259.996 9.37988C260.242 8.80566 260.581 8.31348 261.011 7.90332C261.442 7.51367 261.955 7.20605 262.549 6.98047C263.165 6.75488 263.841 6.64209 264.58 6.64209C266.097 6.64209 267.297 7.07275 268.179 7.93408C269.081 8.7749 269.532 9.86182 269.532 11.1948C269.532 12.5278 269.081 13.625 268.179 14.4863C267.297 15.3271 266.097 15.7476 264.58 15.7476C263.841 15.7476 263.165 15.6348 262.549 15.4092C261.955 15.1836 261.442 14.8657 261.011 14.4556C260.581 14.0659 260.242 13.5942 259.996 13.0405C259.771 12.4663 259.658 11.8511 259.658 11.1948ZM316.352 36.6963C316.352 38.2959 316.239 39.8135 316.013 41.249C315.788 42.6641 315.459 43.9766 315.029 45.1865C314.557 46.5195 313.932 47.7295 313.152 48.8164C312.394 49.9033 311.491 50.8057 310.445 51.5234C309.502 52.2002 308.436 52.7129 307.246 53.0615C306.077 53.4307 304.785 53.6152 303.37 53.6152C302.078 53.6152 300.899 53.4512 299.833 53.123C298.787 52.8154 297.843 52.354 297.002 51.7388C296.551 51.4312 296.131 51.0928 295.741 50.7236C295.352 50.334 294.982 49.9136 294.634 49.4624L294.234 53H286.543V5.75H295.095V22.7305C295.505 22.2588 295.946 21.8281 296.418 21.4385C296.89 21.0283 297.392 20.6797 297.925 20.3926C298.684 19.9619 299.504 19.644 300.386 19.439C301.289 19.2134 302.263 19.1006 303.309 19.1006C304.744 19.1006 306.057 19.2852 307.246 19.6543C308.456 20.0234 309.533 20.5566 310.476 21.2539C311.235 21.7871 311.922 22.4331 312.537 23.1919C313.152 23.9302 313.696 24.7402 314.167 25.6221C314.906 27.0371 315.449 28.6265 315.798 30.3901C316.167 32.1538 316.352 34.0405 316.352 36.0503V36.6963ZM307.8 36.0503C307.8 35.1685 307.759 34.3174 307.677 33.4971C307.595 32.6768 307.461 31.9077 307.277 31.1899C307.051 30.3491 306.754 29.6006 306.385 28.9443C306.036 28.2676 305.503 27.6523 304.785 27.0986C304.313 26.75 303.78 26.4937 303.186 26.3296C302.591 26.145 301.914 26.0527 301.155 26.0527C300.13 26.0527 299.228 26.1963 298.448 26.4834C297.669 26.7705 297.002 27.1909 296.449 27.7446C296.182 28.0112 295.936 28.3188 295.71 28.6675C295.485 28.9956 295.28 29.3545 295.095 29.7441V43.0024C295.341 43.5151 295.618 43.9868 295.926 44.4175C296.254 44.8276 296.633 45.1865 297.064 45.4941C297.577 45.8838 298.171 46.1812 298.848 46.3862C299.545 46.5913 300.335 46.6938 301.217 46.6938C301.976 46.6938 302.663 46.6016 303.278 46.417C303.893 46.2324 304.426 45.9761 304.877 45.6479C305.513 45.1968 306.026 44.6123 306.416 43.8945C306.826 43.1562 307.133 42.3257 307.338 41.4028C307.502 40.7261 307.615 39.9878 307.677 39.188C307.759 38.3882 307.8 37.5576 307.8 36.6963V36.0503ZM340.346 53.6152C337.782 53.6152 335.455 53.1948 333.363 52.354C331.271 51.5132 329.477 50.3647 327.979 48.9087C326.482 47.4731 325.324 45.7812 324.503 43.833C323.704 41.8643 323.304 39.7622 323.304 37.5269V36.2964C323.304 33.7534 323.704 31.436 324.503 29.3442C325.303 27.2319 326.421 25.417 327.856 23.8994C329.292 22.3818 330.994 21.2026 332.963 20.3618C334.932 19.521 337.075 19.1006 339.392 19.1006C341.792 19.1006 343.924 19.5005 345.791 20.3003C347.677 21.0796 349.277 22.187 350.589 23.6226C351.881 25.0581 352.866 26.791 353.542 28.8213C354.219 30.8311 354.558 33.0562 354.558 35.4966V39.1265H331.979V39.2188C332.266 40.5518 332.635 41.6284 333.086 42.4487C333.537 43.2485 334.142 43.9766 334.901 44.6328C335.68 45.3096 336.572 45.8325 337.577 46.2017C338.582 46.5708 339.679 46.7554 340.869 46.7554C342.55 46.7554 344.181 46.4375 345.76 45.8018C347.339 45.166 348.621 44.2124 349.605 42.9409L353.881 47.5552C352.794 49.0933 351.071 50.4878 348.713 51.7388C346.354 52.9897 343.565 53.6152 340.346 53.6152ZM339.331 26.022C338.367 26.022 337.485 26.1963 336.685 26.5449C335.885 26.873 335.188 27.355 334.593 27.9907C333.978 28.6265 333.465 29.3853 333.055 30.2671C332.645 31.1489 332.337 32.1333 332.132 33.2202H346.16V32.5435C346.16 31.6411 345.996 30.79 345.667 29.9902C345.339 29.1904 344.888 28.4932 344.314 27.8984C343.74 27.3242 343.032 26.873 342.191 26.5449C341.371 26.1963 340.417 26.022 339.331 26.022ZM383.504 43.8638C383.504 43.3511 383.381 42.8999 383.135 42.5103C382.91 42.1206 382.5 41.7515 381.905 41.4028C381.29 41.0747 380.479 40.7671 379.475 40.48C378.47 40.1929 377.198 39.9058 375.66 39.6187C373.712 39.229 371.928 38.7471 370.308 38.1729C368.708 37.5781 367.334 36.8604 366.186 36.0195C365.037 35.1992 364.135 34.2456 363.479 33.1587C362.843 32.0718 362.525 30.8208 362.525 29.4058C362.525 28.0317 362.853 26.7192 363.509 25.4683C364.166 24.2173 365.109 23.1201 366.339 22.1768C367.57 21.2334 369.067 20.4849 370.831 19.9312C372.594 19.3774 374.583 19.1006 376.798 19.1006C379.116 19.1006 381.197 19.3774 383.043 19.9312C384.889 20.4644 386.458 21.2026 387.75 22.146C389.021 23.1099 389.995 24.248 390.672 25.5605C391.349 26.873 391.687 28.2983 391.687 29.8364H383.135C383.135 29.2827 383.043 28.77 382.858 28.2983C382.674 27.8062 382.397 27.3652 382.028 26.9756C381.515 26.4629 380.818 26.0527 379.936 25.7451C379.075 25.4375 378.029 25.2837 376.798 25.2837C375.752 25.2837 374.84 25.3862 374.061 25.5913C373.281 25.7964 372.646 26.0835 372.153 26.4526C371.702 26.7808 371.354 27.1704 371.107 27.6216C370.882 28.0522 370.769 28.5137 370.769 29.0059C370.769 29.498 370.872 29.9595 371.077 30.3901C371.282 30.8003 371.651 31.1694 372.184 31.4976C372.697 31.8462 373.404 32.1641 374.307 32.4512C375.209 32.7178 376.357 32.9536 377.752 33.1587C379.762 33.4868 381.628 33.9072 383.351 34.4199C385.073 34.9326 386.56 35.5889 387.811 36.3887C389.062 37.209 390.036 38.2036 390.733 39.3726C391.451 40.521 391.81 41.895 391.81 43.4946C391.81 44.9712 391.451 46.335 390.733 47.5859C390.036 48.8164 389.042 49.8828 387.75 50.7852C386.437 51.6875 384.858 52.395 383.012 52.9077C381.167 53.3999 379.105 53.646 376.829 53.646C374.327 53.646 372.112 53.3179 370.185 52.6616C368.277 52.0054 366.678 51.144 365.386 50.0776C364.094 49.0317 363.109 47.8423 362.433 46.5093C361.776 45.1558 361.448 43.8022 361.448 42.4487H369.6C369.662 43.3511 369.908 44.1304 370.338 44.7866C370.769 45.4224 371.323 45.9351 372 46.3247C372.676 46.7349 373.445 47.0322 374.307 47.2168C375.188 47.4014 376.091 47.4937 377.014 47.4937C378.121 47.4937 379.085 47.4014 379.905 47.2168C380.746 47.0117 381.433 46.7451 381.966 46.417C382.479 46.0889 382.858 45.7095 383.104 45.2788C383.371 44.8481 383.504 44.3765 383.504 43.8638Z" fill="#4C4C4C"/>
<path d="M9.71247 47.3232L2 33.3016L12.2495 18.2926V10.1957L19.1501 2L43.8097 18.2926L45.129 32.9066L50 41.991L29.8055 57L9.71247 47.3232Z" fill="white"/>
<path d="M9.71247 47.3232L2 33.3016L12.2495 18.2926M9.71247 47.3232L29.8055 57M9.71247 47.3232L15.1924 44.8546L16.0042 41.2011M29.8055 57L50 41.991M29.8055 57L32.444 41.991M50 41.991L45.129 32.9066M50 41.991H32.444M45.129 32.9066L43.8097 18.2926M45.129 32.9066L29.3996 30.0431M43.8097 18.2926L19.1501 2M43.8097 18.2926L32.0381 23.0323M19.1501 2L12.2495 10.1957V18.2926M19.1501 2L32.0381 23.0323M12.2495 18.2926L16.7146 21.6499L18.8457 28.9569L21.1797 30.9318M32.0381 23.0323L29.3996 30.0431M29.3996 30.0431L32.444 41.991" stroke="#E5427B" stroke-width="3"/>
</svg>
